PathFileType	4	(X/Y/Z)	TVC_32_BWA_08_walk_RCNL2025.trc
DataRate	CameraRate	NumFrames	NumMarkers	Units	OrigDataRate	OrigDataStartFrame	OrigNumFrames
100	100	5	27	mm	100	1	436
Frame#	Time	R_Shoulder			L_Shoulder			C7			J_Notch			R_Elbow			L_Elbow			R_Wrist			L_Wrist			R_Asis			L_Asis			R_Psis			L_Psis			Sacral			Thoracic			Sternum			R_Thigh_Lateral			R_Knee_Lateral			R_Shank_Lateral			R_Ankle_Lateral			R_Heel			R_Toe			L_Thigh_Lateral			L_Knee_Lateral			L_Shank_Lateral			L_Ankle_Lateral			L_Heel			L_Toe		
		X1	Y1	Z1	X2	Y2	Z2	X3	Y3	Z3	X4	Y4	Z4	X5	Y5	Z5	X6	Y6	Z6	X7	Y7	Z7	X8	Y8	Z8	X9	Y9	Z9	X10	Y10	Z10	X11	Y11	Z11	X12	Y12	Z12	X13	Y13	Z13	X14	Y14	Z14	X15	Y15	Z15	X16	Y16	Z16	X17	Y17	Z17	X18	Y18	Z18	X19	Y19	Z19	X20	Y20	Z20	X21	Y21	Z21	X22	Y22	Z22	X23	Y23	Z23	X24	Y24	Z24	X25	Y25	Z25	X26	Y26	Z26	X27	Y27	Z27
1	0.00000000	-1920.603516	1484.513306	533.586487	-1989.114868	1461.918457	161.757889	-2007.806763	1529.709106	356.954041	-1851.060181	1421.944092	341.386749	-1913.557495	1136.394409	654.931763	-2090.727051	1151.768188	52.867275	-1824.543091	879.808258	605.730316	-2024.909302	885.880341	28.751790	-1933.835815	1014.911560	495.583099	-1957.713623	1035.677002	216.140457	-2130.071289	1046.147949	423.273529	-2136.977783	1046.043579	320.880951	-2133.524536	1046.095764	372.077240	-2097.868652	1276.672241	377.136902	-1842.066162	1274.068604	342.142212	-2034.049438	633.738159	522.023254	-1985.142090	504.070923	457.672516	-2034.873047	294.176422	492.157745	-2014.728271	81.119392	402.709503	-2062.227051	56.668304	332.486908	-1867.624512	45.866150	404.898926	-1944.499878	718.335083	96.589287	-1885.634155	548.254639	121.625809	-1984.600830	414.085541	64.653664	-2065.930176	144.112564	121.356140	-2124.002930	153.658264	181.847153	-1946.789795	61.812580	122.805779
2	0.01000000	-1918.469971	1484.394775	533.830139	-1987.525513	1462.033081	162.143417	-2005.953491	1529.676025	357.384918	-1849.239136	1421.933716	341.596344	-1908.975952	1136.446289	654.977295	-2090.051025	1152.276978	53.277950	-1818.625549	880.398865	605.774323	-2025.328857	886.118744	29.110397	-1931.774658	1014.888123	495.801086	-1955.633179	1035.734863	216.254440	-2128.026367	1046.034668	423.430206	-2134.899170	1045.877930	321.044891	-2131.462769	1045.956299	372.237549	-2095.938477	1276.581909	377.431549	-1840.210327	1274.064331	342.337646	-2032.494019	633.750122	522.170410	-1984.022339	503.935883	457.645172	-2034.281006	294.216980	492.119507	-2014.662354	81.141853	402.643005	-2062.197021	56.692547	332.418579	-1867.610962	45.822941	404.837280	-1941.056885	718.597534	96.995300	-1881.279297	548.851196	122.261154	-1978.389648	413.685455	64.863396	-2055.510498	142.571274	120.813309	-2113.759521	151.048737	181.291000	-1935.235962	62.139137	122.025116
3	0.02000000	-1915.570435	1484.224609	534.148315	-1985.361328	1462.176025	162.657486	-2003.430786	1529.618408	357.960815	-1846.768799	1421.905273	341.873322	-1902.788330	1136.523315	655.030457	-2089.091553	1152.938110	53.843189	-1810.609619	881.224243	605.817841	-2025.843506	886.419769	29.636276	-1928.965454	1014.850952	496.081055	-1952.795532	1035.789062	216.399002	-2125.240234	1045.864014	423.623688	-2132.064453	1045.632812	321.248138	-2128.652344	1045.748413	372.435913	-2093.311523	1276.446045	377.814423	-1837.674072	1274.047974	342.591034	-2030.342407	633.760498	522.374878	-1982.463257	503.750427	457.616699	-2033.453735	294.270782	492.075714	-2014.570435	81.171165	402.555389	-2062.154785	56.728489	332.326385	-1867.593506	45.766945	404.758362	-1936.374756	718.937561	97.523125	-1875.411011	549.634033	123.120720	-1969.946533	413.129791	65.182144	-2041.337646	140.573959	120.193428	-2099.809570	147.624512	180.641388	-1919.563110	62.693233	121.147438
4	0.03000000	-1911.929810	1483.998779	534.530640	-1982.638672	1462.338257	163.289597	-2000.258179	1529.529175	358.670685	-1843.672974	1421.850708	342.210114	-1895.072632	1136.627686	655.085999	-2087.833740	1153.727905	54.562325	-1800.582703	882.289368	605.850372	-2026.415894	886.767334	30.347069	-1925.428711	1014.797729	496.411621	-1949.219238	1035.825073	216.567215	-2121.732422	1045.627441	423.840851	-2128.492920	1045.298462	321.477417	-2125.112671	1045.462952	372.659134	-2090.009033	1276.258423	378.271606	-1834.472778	1274.013062	342.892670	-2027.591309	633.765503	522.637390	-1980.456421	503.514923	457.592407	-2032.384888	294.336517	492.031403	-2014.451660	81.206451	402.448944	-2062.099609	56.777699	332.211609	-1867.572510	45.700043	404.665405	-1930.496460	719.340881	98.155983	-1868.109497	550.579773	124.195938	-1959.346191	412.417755	65.627235	-2023.534912	138.195358	119.569260	-2082.264893	143.487732	179.964523	-1899.932495	63.532963	120.286240
5	0.04000000	-1907.630493	1483.714722	534.959351	-1979.416138	1462.506226	164.017899	-1996.505493	1529.401245	359.490723	-1840.024414	1421.761353	342.592377	-1886.034668	1136.759399	655.137146	-2086.281250	1154.606934	55.424023	-1788.798279	883.582458	605.859100	-2026.993652	887.137909	31.251963	-1921.241211	1014.727051	496.775513	-1944.979370	1035.825439	216.749130	-2117.579346	1045.318359	424.063446	-2124.260010	1044.868652	321.714142	-2120.919678	1045.093506	372.888794	-2086.104248	1276.013916	378.779846	-1830.672729	1273.952148	343.226410	-2024.278320	633.760681	522.954773	-1978.021729	503.233154	457.578766	-2031.082520	294.411377	491.993011	-2014.306641	81.246307	402.327728	-2062.031250	56.841408	332.077454	-1867.548706	45.625114	404.563080	-1923.564087	719.783081	98.867989	-1859.574951	551.647461	125.462860	-1946.836426	411.560791	66.212494	-2002.518188	135.556900	119.030983	-2061.523926	138.817902	179.343887	-1876.831055	64.709900	119.581917
